# xmcd
#
# Track frame offsets:
#	150
#	14039
#	33803
#	51466
#
# Disc length: 989 seconds
#
# Revision: 0
# Processed by: cddbd v1.5.2PL0 Copyright (c) Steve Scherf et al.
# Submitted via: dBpowerAMP V4.0
#
DISCID=2f03db04
DTITLE=Blues Beer Team - En Cerca Del Pablo
DYEAR=2006
DGENRE=Blues
TTITLE0=Puch The Biscuit
TTITLE1=Blue Bossa
TTITLE2=Baronessa
TTITLE3=The Pink Panther
EXTD=
EXTT0=
EXTT1=
EXTT2=
EXTT3=
PLAYORDER=
